<mxfile host="Electron" modified="2024-03-17T12:58:39.447Z" agent="Mozilla/5.0 (Windows NT 10.0; Win64; x64) AppleWebKit/537.36 (KHTML, like Gecko) draw.io/23.0.2 Chrome/120.0.6099.109 Electron/28.1.0 Safari/537.36" etag="ONdzAvQxCD2RZFen-Pa5" version="23.0.2" type="device">
  <diagram name="Page-1" id="b1E7Kufzt26DRJlLbWJ-">
    <mxGraphModel dx="941" dy="644" grid="1" gridSize="10" guides="1" tooltips="1" connect="1" arrows="1" fold="1" page="1" pageScale="1" pageWidth="850" pageHeight="1100" math="0" shadow="0">
      <root>
        <mxCell id="0" />
        <mxCell id="1" parent="0" />
        <mxCell id="oVAyef8eRjAk1X-ASjSO-1" value="" style="ellipse;shape=cloud;whiteSpace=wrap;html=1;fillColor=#dae8fc;strokeColor=#6c8ebf;" parent="1" vertex="1">
          <mxGeometry x="590" width="240" height="180" as="geometry" />
        </mxCell>
        <mxCell id="oVAyef8eRjAk1X-ASjSO-11" style="rounded=0;orthogonalLoop=1;jettySize=auto;html=1;entryX=0;entryY=0.5;entryDx=0;entryDy=0;edgeStyle=orthogonalEdgeStyle;endArrow=none;endFill=0;exitX=0.638;exitY=0.75;exitDx=0;exitDy=0;exitPerimeter=0;" parent="1" source="oG6civBatj3uvRLapty3-3" target="oVAyef8eRjAk1X-ASjSO-4" edge="1">
          <mxGeometry relative="1" as="geometry">
            <Array as="points">
              <mxPoint x="570" y="250" />
              <mxPoint x="570" y="75" />
            </Array>
          </mxGeometry>
        </mxCell>
        <mxCell id="oVAyef8eRjAk1X-ASjSO-4" value="ISP edge device" style="image;html=1;image=img/lib/clip_art/networking/Router_Icon_128x128.png" parent="1" vertex="1">
          <mxGeometry x="610" y="50" width="50" height="50" as="geometry" />
        </mxCell>
        <mxCell id="oG6civBatj3uvRLapty3-3" value="" style="image;html=1;image=img/lib/clip_art/networking/Repeater_128x128.png" parent="1" vertex="1">
          <mxGeometry x="539" y="190" width="80" height="80" as="geometry" />
        </mxCell>
        <mxCell id="oG6civBatj3uvRLapty3-7" style="rounded=0;orthogonalLoop=1;jettySize=auto;html=1;edgeStyle=orthogonalEdgeStyle;endArrow=none;endFill=0;" parent="1" source="oG6civBatj3uvRLapty3-3" target="oG6civBatj3uvRLapty3-2" edge="1">
          <mxGeometry relative="1" as="geometry">
            <mxPoint x="379.5" y="415" as="sourcePoint" />
            <mxPoint x="370" y="380" as="targetPoint" />
            <Array as="points">
              <mxPoint x="580" y="295" />
            </Array>
          </mxGeometry>
        </mxCell>
        <mxCell id="oG6civBatj3uvRLapty3-2" value="WLAN network&#39;s endpoint" style="image;html=1;image=img/lib/clip_art/networking/Router_Icon_128x128.png" parent="1" vertex="1">
          <mxGeometry x="510" y="270" width="50" height="50" as="geometry" />
        </mxCell>
        <mxCell id="oG6civBatj3uvRLapty3-8" style="rounded=0;orthogonalLoop=1;jettySize=auto;html=1;edgeStyle=orthogonalEdgeStyle;endArrow=none;endFill=0;entryX=0;entryY=0.5;entryDx=0;entryDy=0;" parent="1" source="NYTtE7jjRPr0G-s1JELY-3" target="oG6civBatj3uvRLapty3-2" edge="1">
          <mxGeometry relative="1" as="geometry">
            <mxPoint x="130" y="405" as="sourcePoint" />
            <mxPoint x="220" y="340" as="targetPoint" />
          </mxGeometry>
        </mxCell>
        <mxCell id="NYTtE7jjRPr0G-s1JELY-2" value="Ubuntu VM&lt;br&gt;(Target Machine/Ansible-host)" style="image;sketch=0;aspect=fixed;html=1;points=[];align=center;fontSize=12;image=img/lib/mscae/VM_Linux.svg;" parent="1" vertex="1">
          <mxGeometry x="210" y="207" width="50" height="46" as="geometry" />
        </mxCell>
        <mxCell id="NYTtE7jjRPr0G-s1JELY-5" style="rounded=0;orthogonalLoop=1;jettySize=auto;html=1;edgeStyle=orthogonalEdgeStyle;endArrow=none;endFill=0;entryX=0;entryY=0.5;entryDx=0;entryDy=0;" parent="1" source="NYTtE7jjRPr0G-s1JELY-2" target="oG6civBatj3uvRLapty3-2" edge="1">
          <mxGeometry relative="1" as="geometry">
            <mxPoint x="180" y="305" as="sourcePoint" />
            <mxPoint x="250" y="305" as="targetPoint" />
            <Array as="points">
              <mxPoint x="235" y="295" />
            </Array>
          </mxGeometry>
        </mxCell>
        <mxCell id="NYTtE7jjRPr0G-s1JELY-3" value="Control PC" style="image;html=1;image=img/lib/clip_art/computers/Laptop_128x128.png;rotation=0;" parent="1" vertex="1">
          <mxGeometry x="330" y="130" width="80" height="98" as="geometry" />
        </mxCell>
        <mxCell id="NYTtE7jjRPr0G-s1JELY-6" value="&amp;nbsp;172.168.10.2" style="image;sketch=0;aspect=fixed;html=1;points=[];align=center;fontSize=12;image=img/lib/mscae/Docker.svg;" parent="1" vertex="1">
          <mxGeometry x="200" y="50" width="50" height="41" as="geometry" />
        </mxCell>
        <mxCell id="NYTtE7jjRPr0G-s1JELY-7" style="rounded=0;orthogonalLoop=1;jettySize=auto;html=1;edgeStyle=orthogonalEdgeStyle;endArrow=none;endFill=0;entryX=0.633;entryY=-0.03;entryDx=0;entryDy=0;exitX=-0.02;exitY=0.537;exitDx=0;exitDy=0;exitPerimeter=0;entryPerimeter=0;" parent="1" source="NYTtE7jjRPr0G-s1JELY-6" target="hQE91tJbpIO7Ch4Hq78E-1" edge="1">
          <mxGeometry relative="1" as="geometry">
            <mxPoint x="40" y="270" as="sourcePoint" />
            <mxPoint x="315" y="385" as="targetPoint" />
            <Array as="points">
              <mxPoint x="100" y="72" />
            </Array>
          </mxGeometry>
        </mxCell>
        <mxCell id="NYTtE7jjRPr0G-s1JELY-9" value="GIT Repository" style="image;html=1;image=img/lib/clip_art/networking/Cloud_Server_128x128.png" parent="1" vertex="1">
          <mxGeometry x="720" y="35" width="80" height="80" as="geometry" />
        </mxCell>
        <mxCell id="NYTtE7jjRPr0G-s1JELY-10" style="rounded=0;orthogonalLoop=1;jettySize=auto;html=1;exitX=1;exitY=0.5;exitDx=0;exitDy=0;edgeStyle=orthogonalEdgeStyle;endArrow=none;endFill=0;" parent="1" source="oVAyef8eRjAk1X-ASjSO-4" target="NYTtE7jjRPr0G-s1JELY-9" edge="1">
          <mxGeometry relative="1" as="geometry">
            <mxPoint x="749" y="395" as="sourcePoint" />
            <mxPoint x="750" y="220" as="targetPoint" />
            <Array as="points">
              <mxPoint x="730" y="75" />
              <mxPoint x="730" y="75" />
            </Array>
          </mxGeometry>
        </mxCell>
        <mxCell id="hQE91tJbpIO7Ch4Hq78E-1" value="docker network&lt;br&gt;172.168.10.0/30" style="sketch=0;points=[[0.015,0.015,0],[0.985,0.015,0],[0.985,0.985,0],[0.015,0.985,0],[0.25,0,0],[0.5,0,0],[0.75,0,0],[1,0.25,0],[1,0.5,0],[1,0.75,0],[0.75,1,0],[0.5,1,0],[0.25,1,0],[0,0.75,0],[0,0.5,0],[0,0.25,0]];verticalLabelPosition=bottom;html=1;verticalAlign=top;aspect=fixed;align=center;pointerEvents=1;shape=mxgraph.cisco19.wireless_bridge;fillColor=#005073;strokeColor=none;" vertex="1" parent="1">
          <mxGeometry x="60" y="112" width="64" height="50" as="geometry" />
        </mxCell>
        <mxCell id="hQE91tJbpIO7Ch4Hq78E-2" value="" style="endArrow=none;html=1;rounded=0;edgeStyle=orthogonalEdgeStyle;exitX=0;exitY=0.5;exitDx=0;exitDy=0;exitPerimeter=0;" edge="1" parent="1" source="hQE91tJbpIO7Ch4Hq78E-1" target="NYTtE7jjRPr0G-s1JELY-2">
          <mxGeometry width="50" height="50" relative="1" as="geometry">
            <mxPoint x="92" y="160" as="sourcePoint" />
            <mxPoint x="200" y="180" as="targetPoint" />
            <Array as="points">
              <mxPoint x="30" y="137" />
              <mxPoint x="30" y="230" />
            </Array>
          </mxGeometry>
        </mxCell>
      </root>
    </mxGraphModel>
  </diagram>
</mxfile>
